<svg xmlns="http://www.w3.org/2000/svg" viewBox="0 0 64 64" role="img" aria-label="Jake's Bakes">
  <rect width="64" height="64" rx="14" fill="#22302b"/>
  <circle cx="32" cy="32" r="22" fill="#f7efe2"/>
  <path d="M22 21h9v18c0 6-3.8 9-9.2 9-2.8 0-5.2-.9-6.8-2.4l3.4-5.8c.9.8 1.9 1.2 3 1.2 1.9 0 3-1.1 3-3.4V27h-2.4v-6z" fill="#4b2a13"/>
  <path d="M34 21h12.5c5.7 0 9.2 2.7 9.2 7.1 0 2.6-1.3 4.8-3.7 6 3 1 4.8 3.3 4.8 6.4 0 5-3.9 7.5-9.8 7.5H34V21zm10.8 10.8c2 0 3.1-.9 3.1-2.5s-1.1-2.4-3.1-2.4h-3.3v4.9h3.3zm.7 10.3c2.2 0 3.4-.9 3.4-2.7 0-1.7-1.2-2.6-3.4-2.6h-4v5.3h4z" fill="#4b2a13"/>
</svg>
